<?xml version="1.0" encoding="UTF-8"?> <svg xmlns="http://www.w3.org/2000/svg" id="Layer_2" data-name="Layer 2" viewBox="0 0 285.39 313.41"><defs><style> .cls-1 { fill: #fff; stroke-width: 0px; } </style></defs><g id="Layer_1-2" data-name="Layer 1"><g><path class="cls-1" d="M224.89,232.23s-77.99-83.58-67.33-195.03h-2.56s-30.68,90.87,39.21,195.03h30.68Z"></path><path class="cls-1" d="M60.23,232.23s77.99-83.58,67.33-195.03h2.56s30.68,90.87-39.21,195.03h-30.68Z"></path><path class="cls-1" d="M197.64,140.37c0-7.39-24.66-13.38-55.08-13.38s-55.08,5.99-55.08,13.38c0,4.39,8.69,8.28,22.13,10.72-4.4-1.55-6.98-3.44-6.98-5.48,0-5.36,17.88-9.69,39.93-9.69s39.93,4.34,39.93,9.69c0,2.04-2.58,3.92-6.98,5.48,13.44-2.44,22.13-6.33,22.13-10.72"></path><path class="cls-1" d="M154.92,12.43c0,6.87-5.54,12.43-12.36,12.43s-12.36-5.56-12.36-12.43,5.54-12.43,12.36-12.43,12.36,5.57,12.36,12.43"></path><path class="cls-1" d="M3.8,263.25c.18.18.39.33.63.43.24.11.5.15.77.15s.53-.05.77-.15c.24-.11.45-.25.63-.43.18-.18.32-.39.42-.63s.15-.5.15-.79-.05-.55-.15-.79c-.11-.24-.24-.46-.42-.64-.18-.18-.39-.33-.63-.44-.24-.1-.5-.15-.77-.15s-.53.06-.77.15c-.24.11-.46.26-.63.44-.19.19-.33.4-.43.64-.11.24-.15.5-.15.79s.05.55.15.79.24.46.43.63"></path><path class="cls-1" d="M8.61,263.25c.18.18.38.33.63.43.24.11.49.15.77.15s.53-.05.77-.15.45-.25.63-.43c.18-.18.33-.39.43-.63s.15-.5.15-.79-.05-.55-.15-.79c-.11-.24-.25-.46-.43-.64-.18-.18-.39-.33-.63-.44-.24-.1-.5-.15-.77-.15s-.53.06-.77.15c-.24.11-.45.26-.63.44-.18.19-.33.4-.43.64-.11.24-.15.5-.15.79s.05.55.15.79.25.46.43.63"></path><path class="cls-1" d="M31.93,263.91c.18.18.38.33.63.43.24.11.49.15.77.15s.53-.05.77-.15.45-.25.63-.43c.18-.18.33-.39.43-.63s.15-.5.15-.79-.05-.55-.15-.79c-.11-.24-.25-.46-.43-.64-.18-.18-.39-.33-.63-.43s-.5-.16-.77-.16-.53.06-.77.16c-.24.11-.45.25-.63.43-.18.19-.33.4-.43.64-.11.24-.15.5-.15.79s.05.55.15.79c.11.24.25.46.43.63"></path><path class="cls-1" d="M27.12,263.91c.18.18.39.33.63.43.24.11.5.15.77.15s.52-.05.77-.15c.24-.11.45-.25.63-.43.18-.18.32-.39.42-.63s.16-.5.16-.79-.06-.55-.16-.79c-.11-.24-.24-.46-.42-.64-.18-.18-.39-.33-.63-.43-.24-.11-.5-.16-.77-.16s-.54.06-.77.16c-.24.11-.46.25-.63.43-.18.19-.33.4-.42.64-.11.24-.16.5-.16.79s.05.55.16.79c.1.24.24.46.42.63"></path><path class="cls-1" d="M34.97,268.73c-.49-.46-1.08-.81-1.77-1.07-.69-.24-1.47-.37-2.32-.37s-1.66.11-2.4.36c-.74.24-1.39.59-1.94,1.05-.55.46-.98,1.03-1.3,1.7-.31.68-.47,1.46-.47,2.34,0,.14,0,.29.03.47.02.17.04.34.08.52.03.19.07.36.12.53.04.18.09.33.14.49h-12.93c-.13,0-.23-.02-.3-.04-.07-.03-.13-.07-.18-.15-.04-.07-.07-.16-.09-.28,0-.11-.02-.26-.02-.43v-8.04h-4.21c0,.24,0,.47,0,.71,0,.24,0,.47,0,.7-.5.12-1.03.27-1.6.44s-1.12.37-1.66.61c-.55.24-1.07.51-1.57.82s-.94.66-1.32,1.07c-.37.4-.68.85-.9,1.33-.23.49-.34,1.03-.34,1.64,0,.73.15,1.37.47,1.9.31.54.72.97,1.21,1.3.5.33,1.06.59,1.67.75.61.16,1.22.24,1.82.24.46,0,.93-.05,1.38-.13.46-.09.93-.22,1.42-.4.14.2.31.38.52.55.21.16.46.29.76.41.29.11.63.2,1.03.26.4.06.85.09,1.37.09h24.84v-5.44c0-.84-.13-1.6-.39-2.25-.27-.67-.64-1.23-1.14-1.69M7.4,273.71c-.28.13-.56.23-.87.29-.31.07-.63.1-.94.1-.44,0-.81-.1-1.07-.29-.28-.2-.42-.46-.42-.8,0-.28.08-.55.24-.78.15-.24.37-.46.66-.65s.63-.37,1.04-.54c.42-.15.87-.3,1.38-.44v3.11ZM32.29,274.76h-1.29c-.33,0-.63-.06-.9-.16-.26-.11-.49-.26-.68-.45s-.33-.41-.43-.66c-.11-.24-.15-.51-.15-.79,0-.33.05-.62.15-.86.1-.24.23-.44.39-.61.16-.15.35-.28.56-.35.21-.07.43-.11.66-.11.2,0,.39.04.59.12.2.07.38.21.55.39.16.19.28.43.39.74.11.3.15.68.15,1.14v1.6Z"></path><path class="cls-1" d="M40.8,276.11c0,.46-.02.88-.06,1.29-.04.4-.15.77-.33,1.09-.19.33-.46.62-.83.87-.37.25-.9.45-1.59.59l.5,3.56c1.25-.2,2.28-.5,3.11-.94.84-.43,1.51-.98,2-1.64.5-.67.86-1.44,1.07-2.34.22-.9.33-1.91.33-3.05v-7.78h-4.22v8.36Z"></path><path class="cls-1" d="M75,259.37c.18.18.39.33.63.43.24.11.49.15.77.15s.53-.05.77-.15.45-.25.63-.43c.18-.18.33-.39.43-.63.11-.24.15-.5.15-.79s-.05-.55-.15-.79c-.11-.24-.25-.46-.43-.64-.18-.19-.39-.33-.63-.43s-.49-.16-.77-.16-.53.06-.77.16c-.24.11-.45.24-.63.43-.18.19-.33.4-.42.64-.11.24-.16.5-.16.79s.06.55.16.79c.1.24.24.46.42.63"></path><path class="cls-1" d="M77.42,261.06c-.18.19-.33.4-.43.64-.11.24-.15.5-.15.79s.05.55.15.79.25.46.43.63c.18.18.39.33.63.43.24.11.49.15.77.15s.53-.05.77-.15.45-.25.63-.43c.18-.18.33-.39.43-.63s.15-.51.15-.79-.05-.55-.15-.79c-.11-.24-.25-.46-.43-.64-.18-.19-.39-.33-.63-.44-.24-.1-.49-.15-.77-.15s-.53.06-.77.15c-.24.11-.45.25-.63.44"></path><path class="cls-1" d="M72.61,263.91c.18.18.39.33.63.43.24.11.5.15.77.15s.52-.05.77-.15c.24-.11.45-.25.63-.43.18-.18.32-.39.42-.63s.16-.5.16-.79-.06-.55-.16-.79c-.11-.24-.24-.46-.42-.64-.18-.18-.39-.33-.63-.43-.24-.11-.5-.16-.77-.16s-.54.06-.77.16c-.24.11-.46.25-.63.43-.18.19-.33.4-.43.64-.11.24-.15.5-.15.79s.05.55.15.79.25.46.43.63"></path><path class="cls-1" d="M100.14,274.76h-11.32c-.44,0-.91-.05-1.4-.15-.49-.09-.94-.26-1.36-.5,0-.04,0-.08,0-.13v-6.23h-4.23v5.88c0,.22-.04.4-.11.55s-.15.26-.27.35c-.11.08-.24.15-.39.18-.15.04-.31.06-.47.06-.33,0-.64-.04-.98-.11-.34-.07-.67-.16-.99-.28,0-.09,0-.17.02-.27,0-.09,0-.17,0-.26v-4.83h-4.22v4.62c0,.22-.04.4-.11.55-.07.15-.16.26-.28.35-.11.08-.24.15-.39.18-.15.04-.31.06-.47.06-.35,0-.71-.04-1.07-.12-.37-.09-.73-.2-1.1-.34,0-.07.02-.15.02-.23,0-.07,0-.15,0-.23v-3.84h-4.24v3.63c0,.44-.07.73-.2.9-.14.15-.37.24-.7.24h-11.88c-.46,0-.78-.12-.98-.37-.2-.24-.29-.64-.29-1.2v-12.03h-4.22v12.66c0,.69.09,1.3.25,1.84.15.53.42.98.77,1.35.35.36.8.63,1.34.82.55.2,1.2.28,1.95.28h14.14c.74,0,1.36-.11,1.86-.33.5-.22.92-.52,1.24-.9.27.2.55.37.85.51.29.15.62.28.98.38.37.11.77.19,1.2.24.44.06.94.09,1.48.09.72,0,1.31-.11,1.8-.31.49-.2.9-.47,1.21-.82.26.18.53.33.83.46.29.14.62.26.97.35.36.11.74.18,1.16.24.43.05.9.08,1.42.08.81,0,1.48-.13,2.01-.4.52-.26.94-.6,1.25-1.04.52.46,1.08.81,1.7,1.07.62.24,1.22.37,1.82.37h15.6v-16.96h-4.24v13.6Z"></path><rect class="cls-1" x="107.89" y="261.16" width="4.22" height="16.96"></rect><path class="cls-1" d="M151.23,281.1c-.18-.19-.39-.33-.63-.44-.24-.1-.5-.15-.77-.15s-.53.06-.77.15c-.24.11-.46.25-.63.44-.18.19-.32.4-.42.64-.11.24-.16.5-.16.79s.06.55.16.78c.11.25.24.46.42.64.18.18.39.33.63.43s.5.15.77.15.53-.05.77-.15c.24-.11.45-.25.63-.43.18-.18.32-.39.42-.64.1-.24.15-.5.15-.78s-.05-.55-.15-.79c-.11-.24-.24-.46-.42-.64"></path><path class="cls-1" d="M203.75,260.36l-5.62,9.07c1.53.87,2.69,1.66,3.49,2.35.81.71,1.2,1.33,1.2,1.86,0,.14-.02.28-.07.41-.05.14-.15.26-.28.36-.14.11-.32.19-.55.25-.24.06-.53.09-.89.09h-12.79c-.44,0-.91-.05-1.4-.14-.49-.1-.94-.27-1.36-.51,0-.03,0-.08,0-.12v-6.24h-4.23v5.88c0,.22-.03.41-.1.55-.07.15-.16.26-.28.35s-.24.15-.39.19c-.15.03-.31.05-.47.05-.32,0-.65-.03-.98-.11-.34-.07-.67-.16-.99-.28,0-.08,0-.17.02-.26v-5.1h-4.21v4.62c0,.22-.04.41-.11.55-.07.15-.16.26-.28.35s-.24.15-.39.19c-.15.03-.31.05-.47.05-.35,0-.71-.04-1.07-.12-.37-.09-.73-.2-1.1-.34,0-.07.02-.15.02-.23,0-.07,0-.15,0-.23v-3.83h-4.23v3.62c0,.44-.07.74-.21.9-.14.15-.37.24-.69.24h-10.6c-.44,0-.91-.05-1.39-.14-.49-.1-.94-.27-1.37-.51,0-.03,0-.08,0-.12v-6.24h-4.23v5.88c0,.44-.07.74-.2.9-.14.15-.37.24-.7.24h-12.91v-1.42c0-.81-.08-1.53-.25-2.15-.16-.61-.38-1.14-.67-1.59-.28-.44-.6-.81-.97-1.1-.37-.29-.76-.52-1.16-.7-.4-.17-.81-.28-1.25-.36-.42-.07-.82-.1-1.21-.1-.93,0-1.78.15-2.54.43-.77.28-1.42.68-1.95,1.18-.54.5-.95,1.09-1.24,1.77-.29.68-.43,1.4-.43,2.18,0,.89.16,1.64.5,2.27.34.63.79,1.14,1.35,1.54.55.4,1.19.68,1.9.87.7.19,1.42.28,2.16.28.17,0,.37,0,.58-.02.21-.02.42-.03.63-.06-.28.31-.59.57-.95.78-.36.22-.77.4-1.24.54-.46.14-.99.25-1.58.33-.59.07-1.25.13-1.97.16l.42,3.52c1.16-.11,2.25-.27,3.26-.49,1.01-.23,1.93-.53,2.74-.92.81-.38,1.51-.87,2.09-1.46.59-.59,1.03-1.29,1.33-2.14h14.45c.81,0,1.48-.13,2.01-.39.53-.27.94-.61,1.26-1.04.51.46,1.07.81,1.69,1.06.62.25,1.22.37,1.82.37h11.71c.74,0,1.37-.11,1.86-.33.5-.22.92-.52,1.24-.9.27.19.55.36.84.5.3.15.63.28.99.38.37.11.77.19,1.2.24.44.07.94.09,1.48.09.72,0,1.31-.11,1.8-.3.49-.2.9-.48,1.21-.83.26.18.54.33.83.47.29.13.62.25.97.35.35.1.74.17,1.16.23.43.06.9.08,1.42.08.81,0,1.48-.13,2.01-.39.53-.27.94-.61,1.25-1.04.52.46,1.08.81,1.7,1.06s1.22.37,1.82.37h13.12c.98,0,1.82-.11,2.52-.35.7-.24,1.27-.55,1.72-.95.45-.4.77-.87.98-1.41.2-.54.31-1.11.31-1.72,0-.51-.08-1.01-.24-1.49-.16-.47-.4-.93-.71-1.36-.31-.43-.68-.84-1.13-1.24-.45-.39-.94-.76-1.5-1.11l3.69-6.11-3.22-2.02ZM129.79,274.76h-1.2c-.4,0-.75-.06-1.05-.16-.3-.11-.55-.27-.74-.46-.2-.2-.34-.42-.44-.68-.1-.25-.15-.54-.15-.85,0-.28.04-.53.14-.76.09-.22.22-.42.37-.58.16-.16.34-.28.55-.37.22-.09.45-.13.7-.13.56,0,1,.21,1.33.63.33.42.49,1.08.49,1.98v1.38Z"></path><rect class="cls-1" x="210.01" y="261.16" width="4.22" height="16.96"></rect><path class="cls-1" d="M226.84,263.91c.18.18.39.33.63.43.24.11.5.15.77.15s.52-.05.77-.15c.24-.11.45-.25.63-.43.18-.18.32-.39.42-.63s.16-.5.16-.79-.06-.55-.16-.79c-.11-.24-.24-.46-.42-.64-.18-.18-.39-.33-.63-.43-.24-.11-.5-.16-.77-.16s-.54.06-.77.16c-.24.11-.46.25-.63.43-.18.19-.33.4-.43.64-.11.24-.15.5-.15.79s.05.55.15.79.25.46.43.63"></path><path class="cls-1" d="M248.32,260.37l-5.62,9.07c1.53.87,2.69,1.65,3.49,2.35.8.7,1.2,1.32,1.2,1.86,0,.14-.02.28-.07.41-.05.14-.14.25-.28.36-.13.1-.31.18-.55.24-.24.07-.53.1-.9.1h-15.29v-7.01h-4.21v8.36c0,.46-.02.89-.07,1.29-.03.41-.15.77-.33,1.11-.18.33-.46.62-.84.86-.38.25-.91.44-1.6.59l.57,3.55c.98-.15,1.83-.38,2.56-.69.72-.31,1.33-.68,1.83-1.13.5-.45.9-.96,1.2-1.55.3-.59.52-1.26.66-2.01h15.82c.98,0,1.82-.12,2.52-.35.7-.24,1.27-.55,1.72-.96.44-.4.77-.86.98-1.4.2-.54.31-1.11.31-1.72,0-.51-.08-1.01-.25-1.49-.16-.47-.4-.93-.7-1.36-.31-.43-.69-.85-1.13-1.24-.45-.39-.94-.76-1.5-1.11l3.69-6.11-3.22-2.01Z"></path><path class="cls-1" d="M285.24,271.81c-.11-.44-.25-.85-.46-1.26-.2-.4-.45-.78-.76-1.15-.31-.36-.67-.68-1.08-.95s-.88-.49-1.41-.65c-.52-.15-1.1-.23-1.73-.23-.46,0-.98.09-1.57.27-.59.18-1.18.5-1.77.94-.59.46-1.16,1.07-1.7,1.83-.55.76-1,1.73-1.38,2.89-.06.16-.11.32-.19.47-.07.15-.16.28-.28.4-.11.11-.25.21-.41.28-.16.07-.36.11-.59.11h-12.12v-7.01h-4.21v8.36c0,.46-.02.89-.06,1.29-.04.41-.15.77-.33,1.11-.19.33-.47.62-.85.86-.37.24-.91.44-1.6.58l.57,3.56c.98-.15,1.84-.38,2.56-.69.72-.31,1.33-.68,1.83-1.13.5-.45.9-.97,1.2-1.56.3-.59.52-1.26.66-2h12.5c.66,0,1.25-.11,1.73-.35.5-.23.94-.55,1.32-.94h.08c.24.19.53.37.85.53.32.17.68.32,1.07.45.39.14.82.24,1.28.33.46.08.96.12,1.49.12.94,0,1.76-.16,2.45-.47.69-.32,1.26-.72,1.71-1.22.45-.5.78-1.06,1-1.67.22-.62.33-1.23.33-1.83,0-.4-.05-.82-.15-1.25M281.43,273.85c-.11.24-.26.44-.46.59-.2.15-.42.26-.68.33-.27.07-.55.11-.85.11-.19,0-.41-.02-.63-.06-.23-.05-.46-.1-.69-.17-.23-.07-.46-.15-.67-.24-.22-.09-.42-.19-.59-.28.33-1.1.73-1.9,1.21-2.38.49-.49,1.02-.73,1.6-.73.3,0,.58.06.81.16.24.11.45.26.61.44.16.18.29.39.37.63.09.23.13.47.13.72,0,.35-.06.65-.16.9"></path><polygon class="cls-1" points=".16 296.32 11.92 296.32 11.92 299.5 4.61 299.5 4.61 302.96 11.52 302.96 11.52 306.14 4.61 306.14 4.61 309.94 12.19 309.94 12.19 313.11 .16 313.11 .16 296.32"></polygon><polygon class="cls-1" points="19.09 304.28 14.27 296.32 19.45 296.32 22.26 301.86 25.11 296.32 29.99 296.32 25.11 304.28 30.47 313.11 25.17 313.11 21.94 306.93 18.74 313.11 13.69 313.11 19.09 304.28"></polygon><path class="cls-1" d="M32.13,296.32h5.3c1.29,0,2.39.11,3.34.33.94.22,1.72.56,2.33,1.02.61.45,1.07,1.03,1.37,1.72.3.69.45,1.51.45,2.44,0,1.72-.59,3.04-1.75,4-1.16.94-2.78,1.42-4.87,1.42h-1.72v5.88h-4.44v-16.79ZM36.58,304.07h1.15c.37,0,.73-.04,1.07-.11.33-.07.62-.2.87-.38.25-.18.45-.42.59-.72.14-.29.21-.66.21-1.1s-.07-.79-.21-1.08c-.14-.28-.33-.52-.59-.7-.25-.17-.54-.3-.87-.37-.34-.07-.7-.11-1.07-.11h-1.15v4.57Z"></path><path class="cls-1" d="M46.46,304.72c0-1.35.18-2.56.54-3.63.36-1.07.9-1.98,1.6-2.73.71-.75,1.58-1.32,2.62-1.72,1.04-.41,2.25-.6,3.62-.6s2.57.2,3.61.6c1.04.4,1.92.97,2.61,1.72.7.75,1.23,1.66,1.59,2.73.36,1.07.54,2.28.54,3.63s-.18,2.54-.54,3.61c-.37,1.07-.9,1.99-1.6,2.74-.7.75-1.57,1.33-2.61,1.73-1.04.41-2.24.6-3.6.6s-2.58-.2-3.61-.6c-1.04-.41-1.91-.98-2.62-1.73-.71-.75-1.25-1.66-1.6-2.74-.36-1.07-.54-2.28-.54-3.61M51.06,304.72c0,.69.07,1.37.22,2.01.14.65.37,1.22.67,1.72.3.5.69.9,1.17,1.19.48.3,1.05.45,1.73.45s1.24-.15,1.72-.45c.48-.29.87-.69,1.17-1.19.31-.5.53-1.07.67-1.72.14-.64.21-1.32.21-2.01s-.07-1.41-.21-2.05c-.14-.65-.36-1.22-.67-1.71-.3-.5-.69-.88-1.17-1.16-.48-.28-1.05-.43-1.72-.43s-1.25.15-1.73.43c-.48.28-.87.67-1.17,1.16-.3.49-.53,1.06-.67,1.71-.15.64-.22,1.33-.22,2.05"></path><path class="cls-1" d="M87.13,312.72c-.64.16-1.34.32-2.1.46-.38.08-.81.14-1.29.17-.47.03-.99.06-1.56.06-1.12,0-2.24-.15-3.39-.46-1.12-.3-2.15-.79-3.08-1.47-.91-.66-1.67-1.54-2.25-2.65-.58-1.11-.86-2.46-.86-4.04,0-1.47.24-2.74.72-3.84.48-1.09,1.14-2,1.99-2.74.85-.72,1.86-1.27,3.03-1.63,1.17-.37,2.44-.55,3.82-.55.87,0,1.71.09,2.52.25.81.17,1.62.37,2.43.62l-.36,3.63c-.72-.4-1.44-.69-2.14-.89s-1.43-.28-2.21-.28-1.51.13-2.15.4c-.64.28-1.2.65-1.64,1.13-.46.48-.81,1.05-1.06,1.72-.24.67-.37,1.39-.37,2.17,0,.83.14,1.57.42,2.22.28.66.66,1.21,1.16,1.66.5.46,1.08.81,1.77,1.05.68.24,1.42.36,2.23.36.73,0,1.46-.08,2.18-.25.72-.16,1.38-.37,1.99-.61l.21,3.51Z"></path><polygon class="cls-1" points="89.17 296.32 100.92 296.32 100.92 299.5 93.61 299.5 93.61 302.96 100.52 302.96 100.52 306.14 93.61 306.14 93.61 309.94 101.19 309.94 101.19 313.11 89.17 313.11 89.17 296.32"></polygon><polygon class="cls-1" points="104.07 296.32 109.75 296.32 115.39 307.72 115.43 307.72 115.36 296.32 119.43 296.32 119.43 313.11 113.91 313.11 108.07 301.64 108.02 301.64 108.16 313.11 104.07 313.11 104.07 296.32"></polygon><polygon class="cls-1" points="125.59 299.64 121.48 299.64 121.48 296.32 134.15 296.32 134.15 299.64 130.04 299.64 130.04 313.11 125.59 313.11 125.59 299.64"></polygon><path class="cls-1" d="M136,296.32h7.94c.73,0,1.42.09,2.08.26.65.17,1.23.43,1.72.78.49.36.87.8,1.16,1.33.28.53.42,1.15.42,1.86,0,1.12-.27,2.04-.8,2.77-.53.72-1.33,1.2-2.42,1.46v.05c.36.1.65.25.86.46.21.2.4.46.55.78.15.31.3.68.44,1.08.13.42.31.87.51,1.38l1.63,4.57h-4.63l-.96-3.03c-.23-.72-.44-1.32-.63-1.78-.2-.46-.42-.83-.64-1.11-.23-.27-.49-.46-.78-.56-.29-.11-.65-.15-1.07-.15h-.94v6.63h-4.44v-16.79ZM140.44,303.3h1.16c.36,0,.73-.02,1.12-.03.39-.02.74-.1,1.05-.22.32-.12.58-.31.78-.58.2-.26.31-.63.32-1.11,0-.4-.1-.72-.27-.96-.19-.24-.42-.43-.72-.57-.3-.13-.64-.22-1.03-.26-.4-.04-.81-.07-1.24-.07h-1.16v3.79Z"></path><polygon class="cls-1" points="152.06 296.32 163.81 296.32 163.81 299.5 156.5 299.5 156.5 302.96 163.41 302.96 163.41 306.14 156.5 306.14 156.5 309.94 164.08 309.94 164.08 313.11 152.06 313.11 152.06 296.32"></polygon><path class="cls-1" d="M174.36,308.98c.59.33,1.26.59,2.04.8.78.2,1.63.31,2.55.31.36,0,.7-.02,1.03-.07.33-.05.63-.12.89-.24.25-.11.46-.28.61-.5.15-.2.23-.49.23-.83,0-.53-.2-.94-.59-1.2-.39-.28-.88-.51-1.47-.72-.58-.2-1.21-.39-1.9-.59-.68-.2-1.32-.48-1.9-.85-.59-.37-1.07-.85-1.46-1.46-.39-.62-.58-1.44-.58-2.46s.22-1.84.66-2.51c.45-.66,1.02-1.19,1.72-1.58.68-.38,1.46-.65,2.33-.81.86-.16,1.72-.25,2.56-.25s1.6.06,2.34.17c.74.11,1.39.27,1.95.46l-.28,3.47c-.58-.28-1.19-.47-1.82-.59-.63-.11-1.25-.17-1.9-.17-.28,0-.59,0-.94.03-.35.02-.68.09-.98.19-.3.11-.55.26-.77.47-.2.21-.31.5-.31.86,0,.44.2.79.59,1.03.4.24.89.45,1.47.63.58.18,1.21.37,1.9.56.67.18,1.3.46,1.9.84.58.37,1.07.85,1.46,1.47.39.62.59,1.42.59,2.43,0,1.09-.21,1.99-.62,2.7-.42.72-.97,1.28-1.65,1.7-.69.42-1.47.71-2.35.88-.88.16-1.79.25-2.72.25-.4,0-.81-.02-1.22-.05-.41-.03-.84-.08-1.29-.14-.9-.12-1.72-.3-2.46-.55l.38-3.7Z"></path><polygon class="cls-1" points="189.03 296.32 193.48 296.32 193.48 302.74 198.75 302.74 198.75 296.32 203.2 296.32 203.2 313.11 198.75 313.11 198.75 305.93 193.48 305.93 193.48 313.11 189.03 313.11 189.03 296.32"></polygon><path class="cls-1" d="M211.37,296.32h5.45l6.43,16.79h-4.88l-1.24-3.58h-6.27l-1.32,3.58h-4.52l6.33-16.79ZM214.1,299.78h-.06l-2.15,6.58h4.19l-1.99-6.58Z"></path><path class="cls-1" d="M225,296.32h7.94c.73,0,1.42.09,2.08.26.65.17,1.23.43,1.72.78.49.36.87.8,1.16,1.33.28.53.42,1.15.42,1.86,0,1.12-.27,2.04-.8,2.77-.53.72-1.33,1.2-2.42,1.46v.05c.36.1.65.25.86.46.21.2.4.46.55.78.15.31.3.68.44,1.08.13.42.31.87.51,1.38l1.63,4.57h-4.64l-.95-3.03c-.23-.72-.44-1.32-.63-1.78-.2-.46-.42-.83-.64-1.11-.23-.27-.49-.46-.78-.56-.29-.11-.65-.15-1.07-.15h-.94v6.63h-4.44v-16.79ZM229.44,303.3h1.16c.36,0,.73-.02,1.12-.03.39-.02.74-.1,1.05-.22.32-.12.58-.31.78-.58.2-.26.31-.63.31-1.11,0-.4-.09-.72-.26-.96-.19-.24-.42-.43-.72-.57-.3-.13-.64-.22-1.03-.26-.4-.04-.81-.07-1.24-.07h-1.16v3.79Z"></path><path class="cls-1" d="M239.96,309.24c.59.28,1.25.41,2.01.41.33,0,.63-.06.9-.19.28-.12.51-.33.72-.62.2-.29.36-.67.47-1.14.11-.47.17-1.04.17-1.73v-9.65h4.44v10.99c0,.9-.1,1.73-.29,2.47-.2.75-.53,1.39-.99,1.93-.46.53-1.08.95-1.85,1.25-.77.3-1.71.45-2.84.45-.49,0-.98-.05-1.46-.16-.47-.11-.9-.2-1.29-.29v-3.71Z"></path><path class="cls-1" d="M256.87,296.32h5.45l6.43,16.79h-4.88l-1.24-3.58h-6.27l-1.32,3.58h-4.52l6.33-16.79ZM259.61,299.78h-.06l-2.15,6.58h4.19l-1.99-6.58Z"></path><polygon class="cls-1" points="270.62 296.32 275.06 296.32 275.06 302.74 280.33 302.74 280.33 296.32 284.78 296.32 284.78 313.11 280.33 313.11 280.33 305.93 275.06 305.93 275.06 313.11 270.62 313.11 270.62 296.32"></polygon></g></g></svg> 