<?xml version="1.0" encoding="UTF-8"?>
<!DOCTYPE svg PUBLIC "-//W3C//DTD SVG 1.1//EN" "http://www.w3.org/Graphics/SVG/1.1/DTD/svg11.dtd">
<!-- Creator: CorelDRAW -->
<svg xmlns="http://www.w3.org/2000/svg" xml:space="preserve" width="3150px" height="1140px" style="shape-rendering:geometricPrecision; text-rendering:geometricPrecision; image-rendering:optimizeQuality; fill-rule:evenodd; clip-rule:evenodd"
viewBox="0 0 3150 1140"
 xmlns:xlink="http://www.w3.org/1999/xlink">
 <defs>
  <style type="text/css">
   <![CDATA[
    .fil0 {fill:#EA3639}
   ]]>
  </style>
 </defs>
 <g id="Layer_x0020_1">
  <metadata id="CorelCorpID_0Corel-Layer"/>
  <g id="_373762336">
   <path id="_373763848" class="fil0" d="M2074.35 553.214c-1.27677,-0.623622 -41.172,-13.1988 -51.2232,-30.1547 0,0 35.1827,-41.8039 54.0461,30.1547 0.302362,0.635433 -1.57559,0.635433 -2.82402,0l0.0011811 0zm-4.50591 -94.422c-33.776,-6.91654 -64.7539,45.1996 -64.7539,45.1996 0,0 -4.90512,-3.44055 -5.95039,-3.02717 -1.05236,0.420472 -24.5303,29.778 -28.0996,34.5992 -36.0531,48.7831 -72.1618,43.011 -72.3827,43.213 -66.8988,0.840945 -88.7232,-58.7339 -90.3874,-61.0476 -15,-32.5028 -17.2665,-30.1736 -21.2008,-32.4992 -5.23346,-3.11457 -25.1433,-1.04764 -53.8913,23.485 -29.1803,24.8846 -52.1752,91.3618 -52.5921,92.2146 -35.3516,115.788 -51.9024,112.924 -64.9087,112.519 -13.0063,-0.420472 -23.6445,-15.4878 -34.5543,-36.2528 -10.9146,-20.765 -16.6429,-74.2689 -16.4362,-96.0791 0.210236,-21.8209 2.09646,-30.1441 0,-29.9374 -2.09291,0.21378 -6.78425,8.31969 -7.93937,14.1697 -5.97992,30.5055 -0.911811,70.7634 -0.911811,73.9181 2.10709,38.3598 26.9398,110.039 61.1185,110.256 34.1929,0.20315 48.3331,-50.5961 51.4075,-58.8378 6.96496,-18.639 16.8496,-63.2185 37.7469,-107.927 20.3114,-43.4717 60.8197,-43.826 64.5957,-42.5823 3.77598,1.25906 41.7591,88.9406 106.994,92.7201 65.2335,3.77598 87.2646,-49.5177 92.7047,-59.3575 5.45906,-9.86929 10.9146,-12.3791 12.398,-13.8555 1.45748,-1.46929 5.4437,2.31378 5.4437,2.09291 10.8992,19.9382 87.6827,62.7272 103.398,48.052 15.7417,-14.6858 26.0031,-44.7272 26.4461,-51.8209 0.43937,-7.09016 -14.4791,-92.2996 -48.2445,-99.2161l0 0.0011811z"/>
   <path id="_373767928" class="fil0" d="M1388.32 335.589l-1.05591 -3.35551 19.2957 -0.210236 8.50394 -0.324803c0,0 -1.6937,-6.0378 -8.50394,-10.3606 -3.80197,-2.00433 -56.224,-33.9827 -69.0094,-38.1862 -0.416929,0.210236 -10.0795,58.7339 -10.0795,58.7339 0.00354331,0 13.011,0.837402 16.1587,5.45551 3.15236,4.61339 28.0217,39.9839 38.4012,50.1378 10.1315,9.9248 50.9646,51.5953 135.078,85.5744 31.5756,8.79567 41.1213,28.1882 41.1213,28.1882 0,-0.00354331 -34.8567,28.2319 -64.1929,47.9669 -9.27165,6.22677 -145.065,93.1819 -202.835,118.727 -1.89331,0.840945 -56.2984,25.722 -69.9354,2.68346 -11.6787,-19.7102 -13.9181,-40.0287 9.16063,-100.02 0,0.20315 6.71339,-16.7787 6.71339,-16.7787l4.47756 -17.9043c0,0 -13.9819,15.3177 -32.4437,70.4894 -10.0394,25.2024 -23.4189,91.4657 1.12913,114.098 24.5374,22.6736 49.2224,14.5606 93.9933,-5.62087 51.939,-23.4083 231.093,-132.151 257.435,-167.281 11.3787,-15.1736 13.0736,-34.1445 13.9039,-41.726 0.524409,-4.55079 4.89803,-45.9154 -13.9039,-64.0677 -12.2138,-11.8004 -20.0787,-17.4142 -45.2469,-29.5831 -25.1681,-12.1547 -92.0858,-45.7193 -118.31,-76.9783 -0.220866,0 -9.85512,-9.65197 -9.85512,-9.65551l0 -0.0011811z"/>
   <polygon id="_373768360" class="fil0" points="1315.11,490.683 1340.89,439.683 1393.95,477.246 1367.95,530.089 "/>
   <polygon id="_373768600" class="fil0" points="819.043,787.558 844.824,736.589 897.918,774.151 871.886,826.995 "/>
   <polygon id="_373768816" class="fil0" points="903.855,776.496 929.668,725.526 982.73,763.058 956.73,815.933 "/>
   <polygon id="_373769056" class="fil0" points="1578.79,411.371 1604.61,360.402 1657.67,397.932 1631.67,450.808 "/>
   <polygon id="_373769296" class="fil0" points="1663.64,400.307 1689.42,349.339 1742.48,386.902 1716.48,439.746 "/>
   <path id="_373769344" class="fil0" d="M1196.2 217.277l-1.09606 -4.53189 28.1551 1.11142c0,0 0.689764,-4.64646 -4.44449,-10.5449 -3.74646,-4.30748 -58.1067,-54.124 -58.1067,-54.124l-17.4142 58.5272c0,0 12.1618,6.92008 13.2248,10.0654 1.04409,3.14055 12.372,36.4961 18.248,46.3547 5.8689,9.86929 38.7992,68.3858 45.0957,77.4071 0,0.413386 6.6437,8.87717 6.9248,23.7035 0,0.413386 -1.26614,3.14882 -2.09291,3.77598 -0.852756,0.630709 -37.135,23.7035 -78.8752,27.9035l-25.5969 0.616535 -24.0496 46.5839c0,0 27.6083,10.0618 29.9303,12.1583 2.30315,2.09646 37.3299,16.4362 59.576,23.0717 20.2228,6.04252 50.9681,12.7925 55.9996,16.9972 11.6787,5.3811 12.7961,15.9449 12.7961,15.9449 0,0 -78.8823,61.5945 -255.07,100.453 -15.9449,2.52874 -250.039,51.2043 -458.131,-25.9913 -3.35079,-1.67953 -101.807,-34.1268 -172.009,-92.2961 -6.70984,-6.71339 -62.0858,-56.2205 -62.0858,-56.2205l-28.8154 -31.0406 13.435 30.2067c0,0 84.1795,124.182 88.3795,128.363 4.19646,4.20827 78.8752,68.8098 262.622,110.761 80.5476,18.4476 239.97,10.9063 312.966,-1.66772 73.0063,-12.5894 250.039,-60.7051 305.419,-125.03 3.3626,-4.18937 31.0441,-56.2098 29.3646,-70.4787 1.95591,-17.8972 -13.4209,-32.7165 -23.485,-35.2264 -10.0724,-2.52402 -58.7339,-15.9449 -63.776,-17.6315 1.68661,1.68307 48.7134,-26.8299 47.8311,-78.8681 1.67244,-41.1177 -8.38583,-52.0205 -10.9063,-57.8965 -2.51339,-5.87953 -41.139,-66.0236 -41.139,-66.0236l-2.87126 -6.42992 -0.00354331 -0.00354331z"/>
   <path id="_373769560" class="fil0" d="M884.73 332.652l-29.048 48.1594 0 1.47638c0,0 71.9988,0.722835 81.0083,3.84567 7.40787,2.5689 -0.196063,7.51417 -0.196063,7.51417 0,0 -59.8524,25.3937 -77.8713,32.0114 -3.31063,1.11142 -4.77992,4.76811 -4.77992,4.76811 0,0 67.415,-4.70197 83.8217,-12.1252 20.7508,-15.724 46.3146,-56.6008 48.1453,-61.3913 1.84961,-4.77283 1.84488,-6.97913 0.383858,-8.07992 -1.47992,-1.09961 -10.3016,-16.9193 -52.2118,-17.6575 -41.9031,-0.715748 -49.252,1.47638 -49.252,1.47638l0 0.0023622z"/>
   <path id="_373769752" class="fil0" d="M1291.89 27.8079c0,0 -254.62,84.3567 -393.65,130.704 -139.038,46.3429 -341.812,129.223 -341.812,129.223l-29.2134 50.3811c0,0 347.347,-128.257 363.469,-134.298 16.1185,-6.05315 378.416,-131.733 378.416,-131.733l22.7917 -44.276 -0.0011811 -0.0011811z"/>
   <path id="_373769944" class="fil0" d="M1486.23 78.7146c0,0 -22.526,-19.6878 -25.8331,-21.8244 -5.34094,-3.45827 -5.34094,-9.10512 -5.34094,-9.10512 21.835,-14.915 30.7937,-5.45197 33.724,1.09961 5.39291,12.0614 -2.55,29.8335 -2.55,29.8299zm10.5709 6.29646c24.013,-54.2126 5.14488,-66.0531 0.350787,-69.2421 -2.81575,-1.86732 -5.80984,-2.67992 -8.92087,-2.69055 -9.32717,-0.0366142 -19.6843,7.14213 -29.2949,14.7047 -14.413,11.3492 -22.1858,23.6409 -19.9972,41.1094 2.00433,16.0559 29.2689,33.3626 33.6059,36.0236 0.390945,0.239764 0.587008,0.357874 0.587008,0.357874l0.727559 0.416929c-11.6528,15.8079 -58.3984,60.1146 -105.69,91.3949 -30.0366,19.8791 -111.161,75.5575 -111.161,75.5575 0,0 18.3661,-6.79134 20.9091,-8.61142 11.2866,-5.26299 63.5469,-34.6984 107.558,-60.1736 44.022,-25.4717 95.6622,-92.3917 95.6622,-92.3917 0,0 2.55472,1.80827 2.91614,1.45394 9.09094,3.98976 18.9201,23.6516 18.9201,23.6516 0,-0.00354331 0,2.1815 2.91969,-1.82717 2.90079,-4.00512 5.45551,-26.5594 5.45551,-32.3764 0,-5.82047 -14.5465,-17.3587 -14.5465,-17.3587l-0.0023622 0.0011811z"/>
   <path id="_373770136" class="fil0" d="M1797.26 93.1831c0,0 -22.5402,-19.7055 -25.8331,-21.8398 -5.36693,-3.46181 -5.36693,-9.10512 -5.36693,-9.10512 21.835,-14.9114 30.7937,-5.44843 33.7394,1.10787 5.38937,12.0508 -2.53937,29.837 -2.53937,29.837zm10.5449 6.28583c24.0094,-54.2091 5.15669,-66.0567 0.350787,-69.235 -11.2465,-7.47756 -25.3902,1.92283 -38.2016,12.0024 -14.4283,11.3528 -22.1858,23.6516 -20.0008,41.1094 2.0185,16.063 29.2583,33.3661 33.6213,36.0272 0.376772,0.243307 0.587008,0.357874 0.587008,0.357874l0.715748 0.432283c-11.6563,15.7937 -58.3984,60.0957 -105.69,91.3807 -30.0402,19.8756 -111.145,75.5504 -111.145,75.5504 0,0 18.3437,-6.78425 20.8831,-8.60669 11.2902,-5.25945 63.5433,-34.702 107.565,-60.1772 44.0256,-25.4634 95.6657,-92.3846 95.6657,-92.3846 0,-0.00354331 2.53937,1.81181 2.91614,1.44685 9.0874,4.00866 18.9201,23.648 18.9201,23.648 0,0 0,2.18504 2.89016,-1.82008 2.93031,-3.99331 5.45551,-26.5559 5.45551,-32.3728 0,-5.81693 -14.5311,-17.3587 -14.5311,-17.3587l-0.0023622 0z"/>
   <path id="_373770328" class="fil0" d="M2707.64 223.558c0,0 -18.0224,-15.7571 -20.6657,-17.4614 -4.29567,-2.77913 -4.29567,-7.28622 -4.29567,-7.28622 17.4732,-11.9327 24.6484,-4.36299 26.9917,0.875197 4.31102,9.66614 -2.03386,23.8772 -2.03031,23.8724zm8.44961 5.03858c19.2189,-43.3724 4.11496,-52.8508 0.272835,-55.3902 -8.99882,-5.98701 -20.3256,1.53898 -30.561,9.6 -11.5346,9.07913 -17.7602,18.9236 -16.0146,32.8831 1.60157,12.8634 23.4224,26.6965 26.8996,28.8331 0.302362,0.184252 0.468898,0.281102 0.468898,0.281102l0.587008 0.335433c-9.33425,12.6378 -46.7197,48.0969 -84.5445,73.1138 -24.0614,15.9083 -88.9441,60.4394 -88.9441,60.4394 0,0 14.6858,-5.42953 16.7315,-6.87992 9.01299,-4.22244 50.8358,-27.7701 86.0433,-48.1406 35.2228,-20.3705 76.5248,-73.911 76.5248,-73.911 0,0 2.03031,1.44331 2.34331,1.15866 7.26378,3.20433 15.1406,18.9272 15.1406,18.9272 0.00354331,0 0,1.73504 2.31732,-1.46929 2.31732,-3.19961 4.35118,-21.2492 4.35118,-25.9028 0,-4.64646 -11.615,-13.878 -11.615,-13.878l-0.0011811 0z"/>
   <path id="_373770520" class="fil0" d="M1946.79 142.402l-0.0153543 6.75472c0,0 -9.57047,-7.62874 -22.3972,-11.6114 -0.284646,0.154724 -3.08622,-1.32165 -3.08622,-1.9122 0,-0.590551 2.50276,-23.4343 4.27087,-25.3571 1.77165,-1.91929 6.47362,-4.4185 7.95827,-4.4185 1.47283,0 28.5425,10.7445 41.0031,60.5835 0.144094,0 5.62559,22.9169 5.62559,22.9169l1.64291 -13.2059c0,0 5.84291,-54.9697 6.9248,-60.1406 1.47283,-7.04646 6.86102,-19.3594 15.5457,-19.5071 8.7,-0.151181 24.1169,14.472 24.1169,14.472l-7.62874 20.0976c0,0 -12.2941,-11.0504 -17.152,-11.3787 -10.1799,-0.682677 -12.0803,16.2177 -14.7378,45.1075 -2.65748,28.8969 -4.42913,35.3811 -6.34134,39.7996 -1.90039,4.42559 -3.98622,7.67362 -3.98622,7.67362 -9.24213,-47.4402 -31.2886,-70.4563 -31.2886,-70.4563l-0.453543 0.583465 -0.0011811 -0.0011811z"/>
   <path id="_373770712" class="fil0" d="M2397.04 275.496l0 6.74291c0,0 -9.57047,-7.63701 -22.3972,-11.6185 -0.298819,0.151181 -3.11102,-1.3252 -3.11102,-1.90866 0,-0.594094 2.49921,-23.4484 4.2815,-25.3571 1.77165,-1.9122 6.48543,-4.42913 7.94291,-4.42913 1.49882,0 28.5567,10.7551 41.0173,60.5941 0.170079,0 5.62559,22.9098 5.62559,22.9098l1.62756 -13.2024c0,0 5.85709,-54.9803 6.95433,-60.137 1.47283,-7.04646 6.83504,-19.3594 15.5315,-19.5142 8.7,-0.144094 24.1276,14.472 24.1276,14.472l-7.62874 20.0976c0,0 -12.3059,-11.0433 -17.1484,-11.3752 -10.1941,-0.682677 -12.0957,16.2213 -14.7531,45.111 -2.65748,28.8886 -4.42559,35.3811 -6.34134,39.7996 -1.90039,4.42205 -3.99685,7.66654 -3.99685,7.66654 -9.21969,-47.4283 -31.2886,-70.4492 -31.2886,-70.4492l-0.442913 0.597638z"/>
   <path id="_373770904" class="fil0" d="M1962.73 356.995c0,0 -5.01614,1.90039 -7.16457,4.64646 -2.13307,2.72008 -17.9929,23.3339 -26.9657,59.8346 -9.28228,37.9028 11.811,44.6858 11.811,44.6858 0,0 13.4752,6.3189 25.6783,-23.9031 0,-0.196063 4.49173,-9.92835 4.27087,-15.1878 0,0 -0.180709,-4.10079 -3.47717,-1.17047 -6.1311,5.4 -5.02677,12.2976 -7.22717,14.7969 -4.08543,4.68425 -4.28504,4.10079 -5.63622,4.48819 -1.3689,0.387402 -21.1193,-0.24685 -14.8713,-30.45 7.16102,-22.7587 10.9512,-30.3354 17.2665,-43.8295 0,-0.394488 6.31535,-13.911 6.31535,-13.911z"/>
   <path id="_373771096" class="fil0" d="M1033.51 449.277c0,0 -5.02323,1.90039 -7.16102,4.63583 -2.14488,2.72717 -18.0154,23.3339 -26.9693,59.837 -9.29764,37.9063 11.8039,44.6717 11.8039,44.6717 0,0 13.4835,6.3189 25.6819,-23.8807 0.00354331,-0.196063 4.48465,-9.9437 4.28504,-15.1961 0.00354331,0 -0.20315,-4.10079 -3.50315,-1.17402 -6.12756,5.40354 -5.0126,12.2941 -7.21535,14.8004 -4.08189,4.68071 -4.28504,4.0937 -5.64331,4.4811 -1.36181,0.394488 -21.1087,-0.24685 -14.8783,-30.4394 7.17165,-22.7622 10.9654,-30.3472 17.2807,-43.8343 0,-0.387402 6.3189,-13.9039 6.3189,-13.9039l0 0.0023622z"/>
   <path id="_373771288" class="fil0" d="M2142.86 205.245c0,0 -128.766,44.9894 -186.175,65.1638 -57.4346,20.1709 -165.011,66.7169 -165.011,66.7169l-10.3382 27.9295c0,0 315.494,-123.606 340.844,-128.268 -0.505512,-0.520866 20.6764,-31.539 20.6799,-31.5425z"/>
   <path id="_373771480" class="fil0" d="M2659.61 545.339c-41.6776,15.2256 -104.635,28.4386 -104.635,28.4386 0,0 -23.2417,-74.5606 -22.0465,-80.1673 1.21063,-5.62087 11.6409,-22.0417 26.8476,-27.261 15.2362,-5.20039 47.8122,-7.15276 81.3815,9.62953 32.2925,16.1291 83.8807,38.5004 88.5673,39.6744 4.92402,1.24016 7.61811,2.00433 7.61811,2.00433 0,0 -69.9614,24.8433 -77.7354,27.6827l0.0023622 -0.0011811zm-456.159 22.0984c-0.520866,-0.432283 -1.90039,-3.57283 -0.741732,-4.82362 1.15866,-1.25079 8.40118,-17.6244 27.6969,-13.3205 0.324803,0 23.7626,8.62913 31.7823,25.6925 0,0 -44.465,4.19646 -58.7374,-7.54843zm644.819 -75.2988c-20.6362,-2.54291 -86.3421,-17.1484 -157.437,-53.9693 -71.0917,-36.8173 -108.226,-26.974 -109.193,-26.6634 -69.1902,17.4732 -70.4528,94.5921 -69.8291,104.753 0.638976,10.1539 13.0217,56.1839 13.0217,56.1839 0,0 -5.89843,-1.66063 -6.74764,-1.66063 -51.1677,-20.9717 -83.9067,-77.1815 -88.9299,-84.7299 -42.8008,-72.1689 -132.579,-165.292 -140.965,-174.534 -8.39646,-9.21969 -85.585,-81.3886 -85.585,-81.3886l46.1587 -24.3307c141.798,-60.4134 279.961,-99.5634 349.869,-109.075 49.2591,-6.69567 42.8008,26.8476 40.2756,30.2067 -2.49921,3.34724 -25.7185,43.6264 -29.0776,48.6614 -3.34724,5.03386 -33.3071,65.3965 -39.7252,83.9138 -10.05,29.0846 -6.14528,36.352 -6.14528,36.352 0,0 9.5185,-18.7429 9.5185,-19.5697 13.9854,-33.0118 40.8331,-80.5654 63.7606,-119.993 14.4685,-24.8846 32.4354,-47.824 34.3996,-87.2539 2.00787,-40.4492 -106.561,-16.7906 -108.241,-15.9449 -217.604,51.4594 -371.719,132.568 -371.719,132.568l-16.7681 31.037 -11.7331 37.7657c0,0 46.9783,57.0508 47.8122,57.0508 66.0165,79.4398 150.377,214.049 151.041,216.485 1.66772,6.14528 5.58425,12.3024 2.2252,16.2106 -7.10906,8.31614 -54.2421,22.9394 -54.2421,22.9394l-4.19291 -7.26024c-71.328,-129.223 -127.552,-20.9752 -129.235,-14.2724 -21.5327,42.7925 0.875197,61.6134 0.875197,62.4402 28.8,38.8323 104.099,13.0701 106.613,16.428 2.52874,3.36969 6.75827,16.0335 6.75827,16.8862 -99.0614,107.868 -203.242,133.579 -221.342,134.989 -104.111,7.4374 -98.1094,-79.7906 -94.7504,-110.141 3.07441,-27.5197 24.0248,-91.4504 24.0248,-91.4504l-9.68858 9.28228c0,0 -1.27677,2.67992 -4.6252,8.54409 -23.2016,43.7161 -29.0882,104.011 -29.0882,112.404 -1.70197,152.13 120.834,149.665 217.448,83.0209 99.4039,-68.563 113.622,-92.9008 126.031,-111.68 9.84331,-14.9185 14.9079,-61.3654 14.9079,-61.3654l38.1012 -16.8236c0,0 23.485,-18.0933 27.9402,-56.8146 4.43976,-38.7177 -6.97913,-59.6717 -6.97913,-59.6717l0.612992 -5.70945c0,0 26.6787,45.3803 71.4307,102.195 44.7531,56.8264 94.2591,52.0465 94.2591,52.0465l3.4878 36.5031 4.11496 -1.25906c0,0 1.5874,-0.328346 5.40354,-9.20551 3.80197,-8.89843 4.56969,-29.2181 4.56969,-29.2181 0.00354331,-0.00354331 12.5528,-3.11929 12.8669,-2.8122 47.55,-7.82126 172.135,-71.7744 220.951,-80.5406 21.8209,-3.91654 51.4547,0.545669 51.4547,0.545669l24.2457 -50.8205c-0.715748,0.288189 -4.04882,0.453543 -17.9421,-1.25551l0.00354331 0zm18.085 0.944882l-0.144094 0.31063c0.364961,-0.144094 0.144094,-0.31063 0.144094,-0.31063z"/>
   <path id="_373771672" class="fil0" d="M154.655 954.87c-8.47441,-4.87913 -18.828,-7.30748 -31.0406,-7.30748 -8.13543,0 -16.2472,1.74213 -24.2787,5.20039 -8.06811,3.44409 -15.2587,8.63268 -21.5291,15.561 -6.29291,6.89528 -11.3646,15.5161 -15.2764,25.9028 -3.87874,10.3488 -5.81693,22.5437 -5.81693,36.5327 0,10.6299 1.43622,20.4992 4.36654,29.5382 2.93386,9.04252 7.10551,16.8602 12.5787,23.511 5.49921,6.64724 12.2398,11.811 20.1673,15.5386 7.95354,3.72402 17.074,5.57008 27.3059,5.57008 2.33268,0 4.93465,-0.114567 7.85787,-0.380315 2.93031,-0.255118 5.73898,-0.561024 8.47441,-0.930709 2.77205,-0.343701 5.27835,-0.852756 7.57323,-1.47638 2.29252,-0.597638 3.97913,-1.26969 5.03386,-1.99252 0.31063,-2.12598 0.494882,-4.78346 0.590551,-8.00197 0.0814961,-3.16299 0.10748,-6.7252 0.10748,-10.6406 0,-14.3575 -0.251575,-24.9732 -0.748819,-31.8012 -0.487795,-6.84331 -0.812598,-11.5087 -0.977953,-13.9996 1.78701,0.354331 4.13386,0.672047 7.05,0.951969 2.90079,0.239764 7.11614,0.380315 12.6154,0.380315 6.3626,0 11.1319,-0.137008 14.2217,-0.380315 3.12992,-0.281102 5.57008,-0.597638 7.3122,-0.951969 -0.354331,1.43622 -0.65315,3.73937 -0.925984,6.92835 -0.269291,3.17835 -0.479528,6.86929 -0.649606,11.0244 -0.199606,4.17047 -0.317717,8.59606 -0.42874,13.3016 -0.0732283,4.70197 -0.111024,9.1689 -0.111024,13.4126l0 8.77677c0,4.42205 0.0366142,8.55591 0.10748,12.3567 0.0885827,3.81614 0.265748,6.53622 0.571654,8.10118 -11.6598,3.39213 -23.4815,6.02362 -35.4142,7.97244 -11.948,1.94528 -23.7661,2.92323 -35.426,2.92323 -15.222,0 -29.2583,-1.99724 -42.0768,-5.99055 -12.8374,-3.97913 -23.8913,-9.80315 -33.1854,-17.5323 -9.29764,-7.68071 -16.539,-17.0008 -21.7583,-27.9 -5.20748,-10.9217 -7.81417,-23.1791 -7.81417,-36.8244 0,-16.8496 2.77205,-31.5874 8.35276,-44.2618 5.58425,-12.678 13.2768,-23.2193 23.0976,-31.624 9.81024,-8.4189 21.4594,-14.7496 34.9382,-19.0122 13.4457,-4.24488 27.9921,-6.3815 43.5567,-6.3815 13.435,0 25.0949,1.3878 34.9157,4.1563 9.82559,2.77205 19.5248,6.73937 29.0811,11.9185 -1.39843,4.5874 -2.77913,9.10157 -4.08543,13.5378 -1.34291,4.42913 -2.43661,8.93976 -3.33307,13.5567l-3.72756 0c-5.64331,-7.94646 -12.7594,-14.3953 -21.2705,-19.2661l-0.0011811 0.0023622z"/>
   <path id="_373771864" class="fil0" d="M371.505 989.401c-2.83465,-9.14291 -6.76181,-16.8862 -11.811,-23.2677 -5.07165,-6.38504 -11.1508,-11.2795 -18.3472,-14.7638 -7.17874,-3.45827 -14.9669,-5.18976 -23.5004,-5.18976 -9.00945,0 -17.1154,2.19921 -24.3047,6.51024 -7.14567,4.34764 -13.2248,10.2602 -18.1783,17.7272 -4.95709,7.42205 -8.71417,16.1374 -11.2571,26.1803 -2.5689,10.0205 -3.8752,20.7024 -3.8752,32.0303 0,14.1803 1.48346,26.1579 4.53661,35.9091 3.00118,9.76654 7.06417,17.5984 12.1949,23.5264 5.13425,5.92441 11.0728,10.2354 17.7791,12.8776 6.73583,2.67165 13.8189,3.98268 21.2669,3.98268 7.96181,0 15.5835,-1.65354 22.8213,-5.03386 7.25315,-3.38504 13.5969,-8.49685 19.0004,-15.4134 5.39291,-6.93189 9.72165,-15.6898 12.9957,-26.335 3.29646,-10.6299 4.92756,-23.1898 4.92756,-37.7398 0,-11.5453 -1.42441,-21.8575 -4.24843,-31.0004zm-147.546 -0.21378c4.85669,-11.5228 11.726,-21.6177 20.5701,-30.2917 8.89488,-8.68465 19.5768,-15.5126 32.1449,-20.4697 12.5929,-4.94646 26.5713,-7.45157 41.9882,-7.45157 14.1697,0 27.3567,1.97126 39.5634,5.85 12.2209,3.91654 22.8354,9.7252 31.8862,17.5618 9.02835,7.77992 16.1622,17.661 21.3933,29.6232 5.20748,11.9657 7.82126,25.9287 7.82126,41.8736 0,13.2768 -2.49921,25.6854 -7.55906,37.1941 -5.05276,11.5193 -12.0508,21.5917 -20.9941,30.1878 -8.95748,8.58189 -19.6063,15.2693 -32.0185,20.0634 -12.3827,4.80591 -26.0209,7.17165 -40.9063,7.17165 -13.9819,0 -27.1205,-1.71614 -39.4382,-5.16378 -12.3024,-3.45827 -23.0126,-9.06496 -32.1449,-16.7457 -9.12402,-7.73268 -16.3252,-17.5618 -21.6366,-29.5122 -5.31496,-11.9776 -7.96535,-26.2689 -7.96535,-42.926 0,-13.1138 2.42126,-25.4339 7.29685,-36.965l-0.0011811 0z"/>
   <path id="_373772056" class="fil0" d="M545.705 999.964c8.67756,-22.7882 16.4917,-44.5937 23.4012,-65.5252 4.43268,0.915354 8.30433,1.36181 11.6669,1.36181 3.36969,0 7.26024,-0.446457 11.7,-1.36181 -4.43976,10.4268 -9.76299,23.0161 -15.9484,37.7291 -6.19724,14.7236 -12.6484,30.3142 -19.389,46.7787 -6.71339,16.5059 -13.3795,33.2551 -19.9122,50.2559 -6.55512,16.9854 -12.3874,32.9717 -17.5358,47.8453 -3.53622,-0.468898 -7.42677,-0.698031 -11.6965,-0.698031 -4.22953,0 -8.15315,0.229134 -11.674,0.698031 -2.66811,-7.0937 -5.90551,-15.6898 -9.68858,-25.7846 -3.82795,-10.0949 -7.89094,-20.8276 -12.2138,-32.1591 -4.37008,-11.3528 -8.92795,-22.95 -13.6902,-34.8425 -4.77992,-11.863 -9.38268,-23.3303 -13.8224,-34.4067 -4.42559,-11.0764 -8.58898,-21.411 -12.4866,-30.9638 -3.88346,-9.57402 -7.24961,-17.7496 -10.076,-24.4524 4.07126,0.347244 8.08701,0.68622 12.0874,0.955512 3.98268,0.276378 7.89449,0.406299 11.811,0.406299 3.88346,0 7.78819,-0.125197 11.6929,-0.406299 3.89764,-0.269291 7.77283,-0.609449 11.6858,-0.955512 3.01181,9.90709 6.41457,20.374 10.2165,31.3736 3.82795,10.9736 7.75039,22.1752 11.811,33.5953 4.07835,11.4425 8.29724,22.9098 12.6154,34.4185 4.34764,11.5453 8.54409,22.8768 12.6272,34.0417 9.19843,-22.4965 18.1701,-45.1287 26.8181,-67.9028l0 -0.0011811z"/>
   <path id="_373772248" class="fil0" d="M616.499 968.902c-0.343701,-11.4461 -0.863386,-22.9394 -1.5685,-34.4362 7.99843,0.166535 15.9047,0.446457 23.7142,0.816142 7.83189,0.380315 15.7311,0.545669 23.7035,0.545669 13.0878,0 24.7476,-0.125197 34.9276,-0.406299 10.1728,-0.269291 17.0339,-0.609449 20.5913,-0.955512 -0.698031,2.83819 -1.04764,6.55157 -1.04764,11.1909 0.00354331,2.82402 0.069685,5.04921 0.262205,6.6248 0.158268,1.62756 0.420472,3.36969 0.786614,5.35157 -5.14843,-0.368504 -10.7622,-0.712205 -16.8862,-1.05591 -6.07559,-0.368504 -12.0319,-0.708661 -17.8016,-1.08189 -5.73189,-0.328346 -10.9217,-0.609449 -15.5126,-0.797244 -4.61339,-0.166535 -7.89449,-0.255118 -9.82913,-0.255118 -0.741732,9.7252 -1.17047,19.3665 -1.25906,28.9146 -0.0814961,9.56339 -0.144094,19.1858 -0.144094,28.9299 11.5193,-0.191339 21.9248,-0.435827 31.2142,-0.790157 9.29764,-0.343701 18.9862,-0.774803 29.0988,-1.29921 -0.545669,3.01535 -0.882283,5.31496 -1.08543,6.90591 -0.177165,1.59094 -0.265748,3.24449 -0.265748,5.03386 0,1.42441 0.144094,2.8748 0.406299,4.39961 0.284646,1.48701 0.571654,3.63898 0.944882,6.48543 -20.1969,-1.60157 -40.2945,-2.42835 -60.3142,-2.42835 0,5.67283 -0.0484252,11.2937 -0.158268,16.9748 -0.121654,5.65866 -0.173622,11.3197 -0.173622,16.989 0,11.4933 0.229134,22.5331 0.68622,33.137 10.0949,0 20.1744,-0.255118 30.2622,-0.748819 10.1173,-0.483071 20.3079,-1.29921 30.5646,-2.46496 -0.343701,1.94528 -0.623622,3.72402 -0.797244,5.31496 -0.187795,1.5874 -0.255118,3.80197 -0.255118,6.63661 0,2.84882 0.0661417,5.04921 0.255118,6.6626 0.173622,1.57559 0.453543,2.92677 0.797244,3.97913 -4.76102,-0.229134 -10.6748,-0.406299 -17.6764,-0.531496 -6.9685,-0.114567 -16.5874,-0.166535 -28.8,-0.166535 -10.8035,0 -19.5697,0 -26.276,0 -6.53622,0 -11.7815,0 -15.7571,0 -3.97205,0 -6.99449,0.0519685 -9.00236,0.166535 -2.04094,0.125197 -3.74646,0.302362 -5.17441,0.531496 0.705118,-10.9843 1.22598,-22.2012 1.5685,-33.6177 0.350787,-11.4307 0.535039,-24.4937 0.535039,-39.228l0 -36.1524c0,-14.7236 -0.184252,-27.7701 -0.535039,-39.176l0.0011811 0.0011811z"/>
   <path id="_373772440" class="fil0" d="M831.136 965.839c-1.62047,-4.57677 -4.02992,-8.08701 -7.29685,-10.4634 -3.2811,-2.40236 -7.54016,-3.94252 -12.7665,-4.65472 -5.21929,-0.722835 -11.4567,-1.08189 -18.7098,-1.08189 -0.472441,24.072 -0.693307,48.1665 -0.693307,72.2504 1.05945,0.166535 2.08583,0.295276 3.05197,0.409843 0.960236,0.0885827 1.90039,0.125197 2.78268,0.125197 11.6409,0 20.5736,-3.14055 26.7484,-9.40866 6.16772,-6.29646 9.29055,-15.8197 9.29055,-28.5602 0,-7.79528 -0.823228,-13.9996 -2.40709,-18.6165zm-39.4665 67.5437l0 10.8886c0,14.6976 0.177165,27.7559 0.527953,39.1642 0.354331,11.4567 0.845669,22.6441 1.55787,33.6177 -3.0378,-0.468898 -6.28937,-0.698031 -9.82913,-0.698031 -3.5622,0 -7.54016,0 -11.9657,0 -4.43268,0 -8.4189,0 -11.9657,0 -3.53976,0 -6.79488,0.229134 -9.81378,0.698031 0.68622,-10.9843 1.20709,-22.2012 1.53543,-33.6177 0.357874,-11.4307 0.545669,-24.4937 0.545669,-39.228l0 -36.1524c0,-14.7236 -0.187795,-27.7701 -0.545669,-39.176 -0.328346,-11.4461 -0.849213,-22.9394 -1.53543,-34.4362 3.0189,0.347244 6.27402,0.68622 9.82913,0.955512 3.53268,0.276378 7.5437,0.406299 11.9693,0.406299 4.77638,0 10.2354,-0.21378 16.3583,-0.675591 6.1122,-0.468898 13.6819,-0.68622 22.7256,-0.68622 6.73583,0 12.5043,0.166535 17.2665,0.524409 4.80236,0.354331 8.90315,0.901181 12.372,1.5874 3.45472,0.727559 6.48543,1.65354 9.04252,2.79803 2.55472,1.17047 5.00079,2.51693 7.30394,4.10787 5.32205,3.91654 9.5374,8.74724 12.6343,14.5087 3.12638,5.75787 4.64646,12.6272 4.64646,20.5843 0,12.9331 -3.52795,23.4898 -10.611,31.624 -7.10906,8.16496 -17.2925,13.9524 -30.587,17.2807 8.47441,15.0921 17.602,30.0732 27.3425,45.078 9.76299,14.9669 19.4882,29.8193 29.2134,44.5169 -4.05945,-0.468898 -8.04213,-0.698031 -11.9587,-0.698031 -3.88346,0 -7.85787,0 -11.9256,0 -4.08189,0 -8.12008,0 -12.0874,0 -4.00512,0 -8.00906,0.229134 -12.1098,0.698031l-47.5429 -83.6705 -2.39173 0 -0.0011811 0z"/>
   <path id="_373772632" class="fil0" d="M916.417 956.496c-0.361417,-8.32677 -0.638976,-15.6756 -0.816142,-22.05 4.94646,0.915354 8.94685,1.36181 11.9398,1.36181 3.05197,0 7.02047,-0.446457 11.9846,-1.36181 19.3335,21.4264 38.4449,42.5232 57.3283,63.248 18.8717,20.739 38.2571,41.8217 58.1256,63.2882l0 -23.1567 0 -25.774c0,-8.67402 -0.0519685,-17.2441 -0.137008,-25.6594 -0.0732283,-8.40827 -0.151181,-16.1622 -0.24685,-23.2311 -0.0850394,-7.09724 -0.272835,-13.2024 -0.524409,-18.3626 -0.262205,-5.1378 -0.550394,-8.59606 -0.918898,-10.3535 4.97953,0.915354 8.95394,1.36181 11.9917,1.36181 2.99291,0 7.00512,-0.446457 11.9657,-1.36181 -0.955512,16.1114 -1.69724,30.698 -2.23701,43.7043 -0.579921,13.0217 -1.03701,25.3311 -1.42087,36.8244 -0.361417,11.5193 -0.616535,22.9028 -0.68622,34.1669 -0.133465,11.2535 -0.144094,23.2713 -0.144094,36.0236l0 31.8898c-3.53976,-0.468898 -7.18583,-0.698031 -10.885,-0.698031 -3.91654,0 -7.35591,0.229134 -10.3713,0.698031 -36.4807,-42.5339 -75.1547,-85.3346 -116.066,-128.389 -0.210236,5.1378 -0.394488,10.2756 -0.491339,15.3874 -0.147638,5.17441 -0.191339,10.4008 -0.191339,15.7276l0 30.8114c0,10.6299 0.0437008,19.6583 0.140551,27.1098 0.0779528,7.46339 0.229134,13.7563 0.42874,18.8835 0.20315,5.14843 0.373228,9.34488 0.583465,12.6118 0.191339,3.29173 0.394488,5.89134 0.579921,7.85787 -2.12953,-0.468898 -4.24843,-0.698031 -6.3626,-0.698031 -2.13661,0 -4.17047,0 -6.11929,0 -4.0748,0 -8.13898,0.229134 -12.1984,0.698031 0.343701,-1.42441 0.793701,-6.47008 1.30984,-15.1665 0.538583,-8.67402 1.11142,-19.252 1.72795,-31.7386 0.638976,-12.5161 1.15866,-26.0575 1.62756,-40.7043 0.413386,-14.6126 0.65315,-28.6382 0.65315,-42.0874 0.00354331,-12.261 -0.196063,-22.5071 -0.56811,-30.8634l-0.0023622 0.0023622z"/>
   <path id="_373772824" class="fil0" d="M1136.2 1057.53c-1.43268,19.8094 -2.86063,39.685 -4.25197,59.5205 -2.13661,-0.468898 -4.24843,-0.698031 -6.37441,-0.698031 -2.12598,0 -4.16339,0 -6.11929,0 -2.09291,0 -4.21535,0 -6.22677,0 -2.05276,0 -4.12677,0.229134 -6.24094,0.698031 5.63976,-30.4913 10.6819,-60.7902 15.1441,-90.9012 4.42559,-30.1512 8.48976,-60.6933 12.1949,-91.7091 1.93819,0.347244 3.75709,0.68622 5.44843,0.955512 1.67953,0.276378 3.51732,0.406299 5.43661,0.406299 1.62047,0 3.3,-0.125197 5.05984,-0.406299 1.78228,-0.269291 3.6248,-0.609449 5.58071,-0.955512 4.77283,10.6075 9.77362,21.4264 15.0106,32.4142 5.23346,10.9843 10.4339,21.9461 15.672,32.8205 5.22283,10.9323 10.4528,21.6295 15.6685,32.0409 5.22638,10.4787 10.2319,20.3965 14.9965,29.7673 10.6264,-19.8354 21.2114,-40.611 31.7528,-62.3327 10.526,-21.7181 20.5843,-43.2839 30.1476,-64.7102 4.43976,0.915354 8.23465,1.36181 11.4047,1.36181 3.0189,0 6.75827,-0.446457 11.1839,-1.36181 1.7752,15.2469 3.65079,31.6382 5.70945,49.1598 2.01496,17.5618 4.0122,34.6913 5.98346,51.437 1.92992,16.7563 3.86811,32.3846 5.82047,46.9193 1.94173,14.5465 3.71339,26.2465 5.32559,35.0929 -3.53976,-0.468898 -7.13504,-0.698031 -10.748,-0.698031 -3.63898,0 -7.22717,0 -10.774,0 -3.54685,0 -7.17874,0 -10.9028,0 -3.70984,0 -7.44094,0.229134 -11.1579,0.698031 -0.885827,-18.2445 -2.33622,-38.0173 -4.35472,-59.2913 -2.04094,-21.2492 -4.12677,-42.3567 -6.25984,-63.2587l-0.531496 -0.00354331c-10.102,20.9055 -20.0008,41.4933 -29.7307,61.6724 -9.77008,20.2075 -19.3961,40.5012 -28.9594,60.8823 -0.896457,-0.229134 -1.74921,-0.406299 -2.52874,-0.531496 -0.790157,-0.114567 -1.64291,-0.166535 -2.52047,-0.166535 -0.88937,0 -1.73504,0.0519685 -2.51693,0.166535 -0.800787,0.125197 -1.65709,0.302362 -2.52874,0.531496 -9.57402,-19.8354 -19.0677,-39.711 -28.5531,-59.5205 -9.4937,-19.8874 -19.2661,-39.9909 -29.3504,-60.3472l-0.531496 -0.00354331c-2.85354,20.3587 -4.94173,40.4634 -6.37795,60.3508z"/>
   <path id="_373773016" class="fil0" d="M1354.39 968.902c-0.350787,-11.4461 -0.870472,-22.9394 -1.55079,-34.4362 7.9689,0.166535 15.8858,0.446457 23.674,0.816142 7.85079,0.380315 15.7417,0.545669 23.7213,0.545669 13.0996,0 24.7406,-0.125197 34.9087,-0.406299 10.1976,-0.269291 17.0705,-0.609449 20.6138,-0.955512 -0.715748,2.83819 -1.08189,6.55157 -1.08189,11.1909 0,2.82402 0.103937,5.04921 0.272835,6.6248 0.196063,1.62756 0.442913,3.36969 0.807874,5.35157 -5.14488,-0.368504 -10.7705,-0.712205 -16.8898,-1.05591 -6.07913,-0.368504 -12.0319,-0.708661 -17.772,-1.08189 -5.78386,-0.328346 -10.9406,-0.609449 -15.5457,-0.797244 -4.6252,-0.166535 -7.89094,-0.255118 -9.84685,-0.255118 -0.738189,9.7252 -1.12913,19.3665 -1.23661,28.9146 -0.0885827,9.56339 -0.12874,19.1858 -0.12874,28.9299 11.4969,-0.191339 21.887,-0.435827 31.2,-0.790157 9.29764,-0.343701 19.0346,-0.774803 29.0988,-1.29921 -0.531496,3.01535 -0.885827,5.31496 -1.06654,6.90591 -0.196063,1.59094 -0.262205,3.24449 -0.262205,5.03386 0.00354331,1.42441 0.11811,2.8748 0.380315,4.39961 0.284646,1.48701 0.583465,3.63898 0.948425,6.48543 -20.2075,-1.60157 -40.298,-2.42835 -60.2988,-2.42835 0,5.67283 -0.0401575,11.2937 -0.180709,16.9748 -0.103937,5.65866 -0.170079,11.3197 -0.170079,16.989 0,11.4933 0.232677,22.5331 0.701575,33.137 10.0795,0 20.1567,-0.255118 30.2622,-0.748819 10.0913,-0.483071 20.2748,-1.29921 30.561,-2.46496 -0.354331,1.94528 -0.627165,3.72402 -0.823228,5.31496 -0.180709,1.5874 -0.258661,3.80197 -0.258661,6.63661 0,2.84882 0.0779528,5.04921 0.258661,6.6626 0.196063,1.57559 0.468898,2.92677 0.823228,3.97913 -4.77992,-0.229134 -10.6665,-0.406299 -17.6728,-0.531496 -6.97559,-0.114567 -16.6134,-0.166535 -28.8154,-0.166535 -10.8071,0 -19.5437,0 -26.2606,0 -6.52205,0 -11.785,0 -15.7571,0 -4.00866,0 -6.99094,0.0519685 -9.00945,0.166535 -2.04449,0.125197 -3.76063,0.302362 -5.15669,0.531496 0.679134,-10.9843 1.2,-22.2012 1.55079,-33.6177 0.338976,-11.4307 0.520866,-24.4937 0.520866,-39.228l0 -36.1524c0,-14.7236 -0.180709,-27.7701 -0.520866,-39.176l0.0011811 0.0011811z"/>
   <path id="_373773208" class="fil0" d="M1492.01 956.496c-0.376772,-8.32677 -0.649606,-15.6756 -0.819685,-22.05 4.96063,0.915354 8.95748,1.36181 11.9657,1.36181 3.03425,0 6.99094,-0.446457 11.9657,-1.36181 19.311,21.4264 38.4378,42.5232 57.3319,63.248 18.8646,20.739 38.2276,41.8217 58.1102,63.2882l0 -23.1567 0 -25.774c0,-8.67402 -0.0519685,-17.2441 -0.154724,-25.6594 -0.0779528,-8.40827 -0.170079,-16.1622 -0.262205,-23.2311 -0.0779528,-7.09724 -0.220866,-13.2024 -0.494882,-18.3626 -0.272835,-5.1378 -0.561024,-8.59606 -0.896457,-10.3535 4.96063,0.915354 8.95748,1.36181 11.9917,1.36181 2.98228,0 6.93898,-0.446457 11.915,-1.36181 -0.911811,16.1114 -1.66772,30.698 -2.21457,43.7043 -0.587008,13.0217 -1.04055,25.3311 -1.39488,36.8244 -0.402756,11.5193 -0.623622,22.9028 -0.727559,34.1669 -0.11811,11.2535 -0.11811,23.2713 -0.11811,36.0236l0 31.8898c-3.56575,-0.468898 -7.18583,-0.698031 -10.8992,-0.698031 -3.90472,0 -7.34173,0.229134 -10.3642,0.698031 -36.4547,-42.5339 -75.1701,-85.3346 -116.054,-128.389 -0.220866,5.1378 -0.390945,10.2756 -0.545669,15.3874 -0.0779528,5.17441 -0.12874,10.4008 -0.12874,15.7276l0 30.8114c0,10.6299 0.0259843,19.6583 0.12874,27.1098 0.092126,7.46339 0.23622,13.7563 0.442913,18.8835 0.170079,5.14843 0.390945,9.34488 0.571654,12.6118 0.196063,3.29173 0.390945,5.89134 0.561024,7.85787 -2.12244,-0.468898 -4.20827,-0.698031 -6.36732,-0.698031 -2.09646,0 -4.1563,0 -6.09331,0 -4.06417,0 -8.13898,0.229134 -12.202,0.698031 0.338976,-1.42441 0.797244,-6.47008 1.30276,-15.1665 0.535039,-8.67402 1.13268,-19.252 1.75748,-31.7386 0.587008,-12.5161 1.13268,-26.0575 1.57559,-40.7043 0.442913,-14.6126 0.679134,-28.6382 0.679134,-42.0874 0,-12.261 -0.196063,-22.5071 -0.561024,-30.8634l-0.0011811 0.0023622z"/>
   <path id="_373773400" class="fil0" d="M1728.14 963.808c-0.0814961,-4.25906 -0.288189,-7.33701 -0.65315,-9.30827 -2.65394,0 -5.93504,0.103937 -9.84331,0.291732 -3.90472,0.151181 -8.05748,0.368504 -12.4606,0.609449 -4.45157,0.243307 -8.95748,0.627165 -13.5673,1.03346 -4.58031,0.432283 -8.85472,0.901181 -12.7453,1.42087 0.361417,-1.94528 0.660236,-3.89055 0.922441,-5.87244 0.272835,-1.97126 0.402756,-3.89055 0.402756,-5.82402 0.00354331,-1.94528 -0.12874,-3.91654 -0.402756,-5.86063 -0.258661,-1.94528 -0.561024,-3.89409 -0.922441,-5.83937 6.02717,0.166535 11.472,0.383858 16.3654,0.535039 4.84252,0.21378 9.80315,0.33189 14.8453,0.432283 5.03858,0.0885827 10.5343,0.180709 16.4835,0.269291 5.95039,0.0992126 13.0843,0.125197 21.3933,0.125197 8.34567,0 15.5091,-0.0259843 21.4594,-0.125197 5.92441,-0.092126 11.3941,-0.177165 16.3654,-0.269291 4.96063,-0.103937 9.79252,-0.21378 14.4791,-0.432283 4.67598,-0.151181 9.75118,-0.368504 15.2469,-0.535039 -0.338976,1.94528 -0.66378,3.89409 -0.937795,5.83937 -0.24685,1.94528 -0.376772,3.91654 -0.376772,5.86063 0,1.92992 0.12874,3.85276 0.376772,5.82402 0.272835,1.98189 0.597638,3.92717 0.937795,5.87244 -3.54331,-0.520866 -7.5,-0.988583 -11.9657,-1.42087 -4.42559,-0.409843 -8.78858,-0.790157 -13.1102,-1.03346 -4.38898,-0.239764 -8.46732,-0.458268 -12.372,-0.609449 -3.90472,-0.191339 -7.1752,-0.291732 -9.84331,-0.291732 -0.154724,0.88937 -0.31063,2.13661 -0.376772,3.72402 -0.103937,1.59094 -0.154724,3.47362 -0.154724,5.58425l0 14.074 0 66.4039c0,14.6976 0.166535,27.7559 0.520866,39.1642 0.324803,11.4567 0.856299,22.6441 1.56142,33.6177 -3.00827,-0.468898 -6.26339,-0.698031 -9.81732,-0.698031 -3.52795,0 -7.52598,0 -11.9917,0 -4.39961,0 -8.38583,0 -11.9291,0 -3.53976,0 -6.82087,0.229134 -9.84331,0.698031 0.693307,-10.9736 1.21417,-22.161 1.57559,-33.6177 0.328346,-11.4083 0.520866,-24.4677 0.520866,-39.1642l0.00354331 -66.4039c0,-5.16024 -0.0555118,-9.82913 -0.144094,-14.074l-0.0023622 0z"/>
   <path id="_373773592" class="fil0" d="M2058.98 989.401c-2.84882,-9.14291 -6.7689,-16.8862 -11.8476,-23.2677 -5.0126,-6.38504 -11.1319,-11.2795 -18.2811,-14.7638 -7.18583,-3.45827 -15.0366,-5.18976 -23.5264,-5.18976 -9.00945,0 -17.1224,2.19921 -24.3118,6.51024 -7.14567,4.34764 -13.2142,10.2602 -18.163,17.7272 -4.98661,7.42205 -8.75079,16.1374 -11.302,26.1803 -2.55,10.0205 -3.85276,20.7024 -3.85276,32.0303 0,14.1803 1.49528,26.1579 4.52835,35.9091 3.02244,9.76654 7.08307,17.5984 12.1878,23.5264 5.18622,5.92441 11.0799,10.2354 17.8382,12.8776 6.69567,2.67165 13.7787,3.98268 21.2114,3.98268 7.99488,0 15.587,-1.65354 22.8508,-5.03386 7.22717,-3.38504 13.5933,-8.49685 18.9862,-15.4134 5.40354,-6.93189 9.74055,-15.6898 12.9957,-26.335 3.30709,-10.6299 4.90512,-23.1898 4.90512,-37.7398 0,-11.5453 -1.37717,-21.8575 -4.2189,-31.0004zm-147.565 -0.21378c4.90866,-11.5228 11.7331,-21.6177 20.5996,-30.2917 8.85472,-8.68465 19.5839,-15.5126 32.1484,-20.4697 12.5681,-4.94646 26.5382,-7.45157 41.9657,-7.45157 14.1543,0 27.372,1.97126 39.5705,5.85 12.228,3.91654 22.8508,9.7252 31.8898,17.5618 8.99882,7.77992 16.1445,17.661 21.3933,29.6232 5.22283,11.9657 7.79882,25.9287 7.79882,41.8736 0,13.2768 -2.4874,25.6854 -7.56614,37.1941 -5.04921,11.5193 -12.0177,21.5917 -20.9504,30.1878 -8.95748,8.58189 -19.6358,15.2693 -32.0043,20.0634 -12.4346,4.80591 -26.0693,7.17165 -40.9358,7.17165 -13.9854,0 -27.1252,-1.71614 -39.4299,-5.16378 -12.3425,-3.45827 -23.0575,-9.06496 -32.1744,-16.7457 -9.11339,-7.73268 -16.2992,-17.5618 -21.6248,-29.5122 -5.31496,-11.9776 -7.9689,-26.2689 -7.9689,-42.926 0,-13.1138 2.42126,-25.4339 7.28976,-36.965l-0.0011811 0z"/>
   <path id="_373773784" class="fil0" d="M2136.64 968.902c-0.338976,-11.4461 -0.859843,-22.9394 -1.55079,-34.4362 7.98307,0.166535 15.9118,0.446457 23.7106,0.816142 7.81417,0.380315 15.6898,0.545669 23.6846,0.545669 13.1138,0 24.7406,-0.125197 34.9087,-0.406299 10.2094,-0.269291 17.0811,-0.609449 20.6256,-0.955512 -0.727559,2.83819 -1.08189,6.55157 -1.08189,11.1909 0,2.82402 0.092126,5.04921 0.262205,6.6248 0.180709,1.62756 0.453543,3.36969 0.819685,5.35157 -5.15669,-0.368504 -10.7811,-0.712205 -16.8756,-1.05591 -6.11929,-0.368504 -12.0579,-0.708661 -17.8122,-1.08189 -5.7437,-0.328346 -10.9252,-0.609449 -15.535,-0.797244 -4.59567,-0.166535 -7.89094,-0.255118 -9.84331,-0.255118 -0.675591,9.7252 -1.1185,19.3665 -1.21063,28.9146 -0.0779528,9.56339 -0.144094,19.1858 -0.144094,28.9299 11.5642,-0.191339 21.9685,-0.435827 31.2661,-0.790157 9.28228,-0.343701 18.972,-0.774803 29.074,-1.29921 -0.520866,3.01535 -0.859843,5.31496 -1.08189,6.90591 -0.154724,1.59094 -0.220866,3.24449 -0.220866,5.03386 0.00354331,1.42441 0.10748,2.8748 0.406299,4.39961 0.232677,1.48701 0.545669,3.63898 0.896457,6.48543 -20.1933,-1.60157 -40.3122,-2.42835 -60.3402,-2.42835l0.00354331 13.5567c0,14.7378 0.191339,27.822 0.545669,39.2528 0.324803,11.4567 0.845669,22.6843 1.50945,33.6685 -3.00827,-0.468898 -6.25276,-0.698031 -9.81732,-0.698031 -3.56929,0 -7.54016,0 -11.9811,0 -4.39961,0 -8.41181,0 -11.915,0 -3.59173,0 -6.83504,0.229134 -9.85512,0.698031 0.689764,-10.9843 1.21063,-22.2012 1.55079,-33.6177 0.338976,-11.4307 0.494882,-24.4937 0.494882,-39.228l0 -36.1524c0,-14.7236 -0.158268,-27.7701 -0.494882,-39.176l0.0011811 0.00354331z"/>
   <path id="_373773976" class="fil0" d="M2385.64 1063.87l0 15.9449c0,5.16378 0.0625984,9.85512 0.191339,14.1142 0.11811,4.24843 0.158268,7.00512 0.158268,8.25236 2.68346,0.166535 5.85709,0.305906 9.60709,0.446457 3.69803,0.177165 8.30787,0.229134 13.8295,0.229134 20.0268,0 35.8571,-6.80197 47.5654,-20.4732 11.6894,-13.6571 17.5394,-34.3075 17.5394,-61.963 0,-10.9843 -1.43622,-20.8134 -4.35118,-29.4874 -2.94213,-8.71063 -7.05709,-16.0996 -12.3685,-22.2154 -5.3374,-6.11575 -11.7189,-10.8177 -19.1669,-14.0882 -7.46339,-3.29173 -15.7937,-4.94646 -24.9992,-4.94646 -6.3815,0 -11.5524,0.140551 -15.5504,0.420472 -3.98268,0.265748 -8.00551,0.571654 -12.1063,0.915354 0,1.23307 -0.0401575,4.00512 -0.158268,8.25236 -0.12874,4.25906 -0.154724,9.06496 -0.154724,14.3799l-0.0366142 15.9449 0 13.3276 0 47.3398 0 13.6051 0.0011811 0.0011811zm-39.9248 -94.9984c-0.361417,-11.4461 -0.870472,-22.9394 -1.56142,-34.4362 3.02244,0.347244 6.3,0.68622 9.84331,0.955512 3.56929,0.276378 7.55197,0.406299 11.9917,0.406299 5.82047,0 12.3425,-0.21378 19.6358,-0.675591 7.25315,-0.468898 16.7563,-0.68622 28.4386,-0.68622 15.2587,0 29.1142,1.36181 41.6114,4.12323 12.4642,2.73189 23.2571,7.3748 32.2807,13.9335 9.06142,6.5622 16.0524,15.3992 21.0012,26.4638 4.97598,11.087 7.44803,25.0358 7.44803,41.8594 0,14.6976 -2.44724,27.9992 -7.32992,39.8764 -4.85669,11.8736 -11.4862,22.0087 -19.924,30.4287 -8.42244,8.44134 -18.137,14.837 -29.2181,19.252 -11.0799,4.43622 -22.9323,6.67323 -35.5063,6.67323 -13.2803,0 -24.6366,-0.114567 -34.0382,-0.354331 -9.37559,-0.229134 -17.524,-0.343701 -24.4004,-0.343701 -4.43976,0 -8.42598,0 -11.9917,0 -3.53976,0 -6.82441,0.229134 -9.84331,0.698031 0.689764,-10.9843 1.19528,-22.2012 1.56142,-33.6177 0.354331,-11.4307 0.520866,-24.4937 0.520866,-39.228l0.00354331 -36.1524c0,-14.7236 -0.173622,-27.7701 -0.524409,-39.176l0.0011811 0z"/>
   <path id="_373774168" class="fil0" d="M2602.11 1116.9c-9.80315,-2.3811 -18.3331,-6.34843 -25.585,-11.9398 -7.2378,-5.57008 -12.9697,-12.7417 -17.0811,-21.515 -4.15276,-8.78858 -6.22677,-19.4587 -6.22677,-32.0445 0.00354331,-7.05709 0.0661417,-13.4421 0.158268,-19.0087 0.12874,-5.55827 0.180709,-10.774 0.180709,-15.5539 0,-4.77992 0.0519685,-9.38268 0.184252,-13.7965 0.103937,-4.42559 0.191339,-9.03898 0.191339,-13.8449 0.00354331,-14.3469 -0.103937,-25.9287 -0.31063,-34.8024 -0.12874,-8.88071 -0.406299,-15.5126 -0.767717,-19.9417 3.53976,0.347244 7.19764,0.68622 10.8957,0.955512 3.69803,0.276378 7.33346,0.406299 10.8591,0.406299 3.55748,0 7.16457,-0.125197 10.8732,-0.406299 3.71339,-0.269291 7.35591,-0.609449 10.8732,-0.955512 -1.77165,17.178 -2.80157,33.1783 -3.17835,47.9528 -0.350787,14.7862 -0.535039,29.7933 -0.535039,45.0366 0.00354331,16.1256 1.17402,29.0953 3.46535,39.0508 2.25118,9.91772 5.68819,17.55 10.1681,22.9654 4.50709,5.40354 9.99921,8.99173 16.5614,10.7811 6.52559,1.75748 14.1295,2.63504 22.7764,2.63504 10.5709,0 18.8646,-2.63504 24.8693,-7.96181 6.01654,-5.32559 10.5602,-12.424 13.6311,-21.2492 3.10039,-8.86181 4.98661,-19.0193 5.69173,-30.4394 0.715748,-11.4083 1.04055,-23.3232 1.04055,-35.7319 0,-12.2055 -0.170079,-24.3898 -0.520866,-36.5067 -0.324803,-12.1323 -0.845669,-24.3236 -1.55079,-36.5327 2.51339,0.347244 4.90866,0.68622 7.24134,0.955512 2.30315,0.276378 4.46575,0.406299 6.41811,0.406299 2.29252,0 4.50236,-0.125197 6.67677,-0.406299 2.11181,-0.269291 4.33701,-0.609449 6.65433,-0.955512 -0.402756,3.89409 -0.793701,9.1311 -1.14449,15.6685 -0.416929,6.54803 -0.807874,14.1508 -1.2,22.7362 -0.387402,8.58189 -0.727559,18.0933 -1.01457,28.4575 -0.284646,10.3748 -0.453543,21.274 -0.453543,32.8205 0,30.8339 -6.60354,52.9323 -19.8567,66.2965 -13.2283,13.402 -32.6835,20.0787 -58.3098,20.0787 -11.328,0 -21.8728,-1.1811 -31.6795,-3.60945l0.00472441 -0.0011811z"/>
   <path id="_373774360" class="fil0" d="M2834.89 1038.75c-5.55827,-6.11575 -13.6346,-9.18307 -24.1937,-9.18307 -2.50984,0 -4.62047,0.0779528 -6.37795,0.154724 -1.74567,0.140551 -3.4252,0.20315 -5.02677,0.20315 0,3.72402 -0.0401575,7.55197 -0.170079,11.5713 -0.103937,3.96732 -0.196063,8.69646 -0.196063,14.1921 0,4.25551 0.092126,8.60669 0.196063,13.0323 0.133465,4.42205 0.170079,8.73661 0.170079,13.0323 0,4.25906 0.0661417,8.13898 0.154724,11.6858 0.133465,3.53622 0.184252,6.45945 0.184252,8.77323 2.46142,0.20315 4.75039,0.380315 6.86102,0.494882 2.14843,0.12874 4.6878,0.180709 7.65472,0.180709 3.89409,0 7.56614,-0.790157 11.1213,-2.39173 3.50315,-1.60157 6.58819,-3.96732 9.2315,-7.05709 2.61732,-3.11457 4.76457,-6.90591 6.32598,-11.328 1.59094,-4.45157 2.38465,-9.61535 2.38465,-15.4913 0,-12.4346 -2.74606,-21.7181 -8.31969,-27.8705l0 0.0011811zm5.11535 -70.128c-0.948425,-3.76417 -2.60197,-7.06772 -4.89449,-9.80315 -2.31732,-2.73543 -5.24882,-4.93465 -8.80276,-6.63661 -3.52795,-1.65354 -7.95827,-2.52047 -13.2945,-2.52047 -3.90472,0 -6.59882,0.0519685 -8.11299,0.140551 -1.50945,0.114567 -3.16299,0.32126 -4.92047,0.660236 -0.350787,6.55157 -0.597638,13.1988 -0.793701,19.8909 -0.170079,6.69921 -0.262205,12.3827 -0.262205,16.9594 0,4.76811 0.092126,9.32008 0.196063,13.6453 0.133465,4.35945 0.170079,8.79921 0.170079,13.376l11.9551 0c3.70984,0 7.36654,-0.675591 10.9878,-2.11181 3.64724,-1.41024 6.88701,-3.49488 9.65906,-6.21969 2.87953,-2.73189 5.18268,-6.24094 6.94252,-10.4894 1.77165,-4.2189 2.66811,-9.17953 2.66811,-14.8264 0,-4.23307 -0.494882,-8.25236 -1.49882,-12.0661l0.0011811 0.0011811zm-80.7543 0.281102c-0.402756,-11.4461 -0.977953,-22.9394 -1.82362,-34.4362 3.02244,0.347244 6.28937,0.68622 9.85866,0.955512 3.53976,0.276378 7.55197,0.406299 11.9776,0.406299 7.64409,0 15.587,-0.21378 23.9728,-0.675591 8.33386,-0.468898 16.3028,-0.68622 23.9327,-0.68622 7.95827,0 15.2469,0.790157 21.8102,2.3811 6.57756,1.60157 12.2398,3.99331 17.0445,7.30748 4.77992,3.25512 8.44843,7.50354 11.0398,12.7299 2.56535,5.21575 3.84213,11.4827 3.84213,18.7311 0,7.26024 -1.5248,13.4906 -4.55787,18.7169 -3.0189,5.22638 -6.73228,9.56339 -11.0917,13.0063 -4.36299,3.44764 -9.07559,6.15709 -14.1803,8.08701 -5.07874,1.97126 -9.64843,3.29646 -13.7787,3.99331l0.00354331 0.472441c4.05945,0.177165 8.85118,1.10315 14.3315,2.78268 5.46969,1.70551 10.7043,4.3252 15.639,7.85787 4.96417,3.53622 9.1689,8.13898 12.6047,13.6972 3.46535,5.60669 5.18268,12.4087 5.18268,20.3811 0.00354331,9.58937 -1.71614,17.7756 -5.18268,24.489 -3.43583,6.73937 -8.02087,12.2469 -13.7894,16.5319 -5.73898,4.24843 -12.3272,7.20827 -19.7504,8.89843 -7.43386,1.6937 -15.1075,2.54291 -23.113,2.54291 -7.08307,0 -13.6606,-0.114567 -19.7398,-0.354331 -6.10866,-0.229134 -12.5268,-0.343701 -19.2449,-0.343701 -4.77992,0 -9.70039,0 -14.7272,0 -5.02677,0 -9.06496,0.229134 -12.0839,0.698031 0.849213,-10.9843 1.42087,-22.2012 1.82362,-33.6177 0.406299,-11.4307 0.587008,-24.4937 0.587008,-39.228l0 -36.1524c0,-14.7236 -0.184252,-27.7701 -0.587008,-39.176l0 0.00354331z"/>
   <path id="_373774552" class="fil0" d="M2967.89 984.371c-4.59567,10.6193 -8.95748,21.0827 -13.0063,31.4469 -4.08543,10.3488 -8.05748,20.9161 -11.9516,31.702l48.6319 0c-3.93071,-10.7846 -7.78819,-21.352 -11.589,-31.702 -3.78661,-10.3642 -7.85079,-20.8276 -12.0839,-31.4469l-0.0011811 0zm94.0276 132.674c-4.2189,-0.468898 -8.27126,-0.698031 -12.0839,-0.698031 -3.80197,0 -7.55197,0 -11.2642,0 -3.72047,0 -7.52598,0 -11.328,0 -3.78661,0 -7.5626,0.229134 -11.2866,0.698031 -2.83819,-8.72126 -5.73189,-17.6209 -8.74016,-26.7 -3.0189,-9.06496 -6.19724,-18.1594 -9.5811,-27.261 -5.67638,-0.243307 -11.2902,-0.394488 -16.9783,-0.509055 -5.65039,-0.11811 -11.3421,-0.166535 -16.9783,-0.166535 -4.6252,0 -9.20906,0.0519685 -13.8709,0.166535 -4.5437,0.111024 -9.19016,0.265748 -13.774,0.509055 -3.53976,9.10157 -6.82087,18.1961 -9.82913,27.261 -2.98228,9.07559 -5.7685,17.9787 -8.2311,26.7 -2.12244,-0.468898 -4.2189,-0.698031 -6.26339,-0.698031 -2.01496,0 -4.11496,0 -6.2374,0 -2.10709,0 -4.24488,0 -6.35197,0 -2.12244,0 -4.43976,0.229134 -6.91299,0.698031 2.09646,-4.60276 4.94646,-10.9843 8.50039,-19.1492 3.51732,-8.14961 7.41142,-17.3811 11.6929,-27.6567 4.24488,-10.2862 8.78858,-21.2858 13.6713,-33.111 4.85669,-11.7744 9.72992,-23.6776 14.5831,-35.7319 4.89803,-12.0661 9.67795,-23.9693 14.3646,-35.6539 4.6878,-11.6965 8.98346,-22.5957 12.874,-32.7024 1.80118,0.364961 3.45118,0.698031 5.06811,0.96378 1.5874,0.305906 3.24094,0.432283 5.03858,0.432283 1.78701,0 3.46181,-0.125197 5.02677,-0.432283 1.61339,-0.265748 3.31772,-0.597638 5.06339,-0.96378 5.66575,15.078 11.7449,31.2142 18.189,48.3815 6.45945,17.1921 12.9697,34.0902 19.5213,50.6728 6.57402,16.5685 12.9402,32.2961 19.1374,47.1992 6.18661,14.8783 11.863,27.4795 16.9819,37.7504l-0.0011811 0.0011811z"/>
   <path id="_373774744" class="fil0" d="M3089.67 968.902c-0.324803,-11.4461 -0.845669,-22.9394 -1.53543,-34.4362 2.96693,0.347244 6.28583,0.68622 9.82913,0.955512 3.52795,0.276378 7.51417,0.406299 11.9398,0.406299 4.43976,0 8.41181,-0.125197 11.9551,-0.406299 3.53976,-0.269291 6.81024,-0.609449 9.82913,-0.955512 -0.689764,11.4969 -1.21063,22.9913 -1.56142,34.4362 -0.338976,11.4047 -0.483071,24.4524 -0.483071,39.176l0 36.1488c0,14.7378 0.144094,27.7996 0.483071,39.2315 0.350787,11.4165 0.870472,22.6335 1.56142,33.6177 -3.0189,-0.468898 -6.28937,-0.698031 -9.82913,-0.698031 -3.54331,0 -7.51417,0 -11.9551,0 -4.42559,0 -8.41181,0 -11.9398,0 -3.53976,0 -6.86102,0.229134 -9.82913,0.698031 0.689764,-10.9843 1.21063,-22.2012 1.53543,-33.6177 0.338976,-11.4307 0.531496,-24.4937 0.531496,-39.228l0.00354331 -36.1524c0,-14.7236 -0.196063,-27.7701 -0.535039,-39.176z"/>
  </g>
 </g>
</svg>
